<?xml version="1.0" encoding="UTF-8"?>
<svg id="Capa_1" data-name="Capa 1" xmlns="http://www.w3.org/2000/svg" viewBox="0 0 150 150">
  <defs>
    <style>
      .cls-1 {
        fill: #0e87cb;
      }

      .cls-1, .cls-2, .cls-3, .cls-4 {
        stroke-width: 0px;
      }

      .cls-2 {
        fill: none;
      }

      .cls-3 {
        fill: #fff;
      }

      .cls-4 {
        fill: #17b6fc;
      }
    </style>
  </defs>
  <g>
    <path class="cls-2" d="m49.39,122.42c-2.89,0-5.23-2.35-5.23-5.23v-59.77c0-2.89,2.35-5.23,5.23-5.23h6.06v-7c0-.62.5-1.12,1.12-1.12h12.85c.62,0,1.12.5,1.12,1.12v7h15.54l2.56-8.93c.14-.48.58-.81,1.07-.81h23.55c.5,0,.94.33,1.07.81l2.56,8.93h23.45C130.91,25.18,105.22,5.81,75,5.81,36.79,5.81,5.81,36.79,5.81,75s30.98,69.19,69.19,69.19c19.86,0,37.76-8.37,50.38-21.77H49.39Zm-15.23-57.26h-8.07c-.62,0-1.12-.5-1.12-1.12s.5-1.12,1.12-1.12h8.07c.62,0,1.12.5,1.12,1.12s-.5,1.12-1.12,1.12Zm3.85-14.11c-.21.36-.58.56-.97.56-.19,0-.38-.05-.56-.15l-6.99-4.04c-.53-.31-.72-.99-.41-1.53.31-.53.99-.72,1.53-.41l6.99,4.04c.53.31.72.99.41,1.53Zm5.94-10.67l-4.04-6.99c-.31-.53-.13-1.22.41-1.53.53-.31,1.22-.13,1.53.41l4.04,6.99c.31.53.13,1.22-.41,1.53-.18.1-.37.15-.56.15-.39,0-.76-.2-.97-.56Z"/>
    <path class="cls-3" d="m101.48,117.65c-7.8,0-14.91-2.96-20.3-7.8h-34.79v7.34c0,1.65,1.35,3,3,3h78.01c2.76-3.2,5.24-6.66,7.38-10.34h-13.01c-5.38,4.85-12.5,7.8-20.3,7.8Z"/>
    <path class="cls-3" d="m86.91,54.42h-37.52c-1.65,0-3,1.35-3,3v14.04h29.21c5.34-8.7,14.94-14.51,25.88-14.51s20.53,5.81,25.88,14.51h16.75c-.08-1.64-.23-3.27-.42-4.88h-10.07c-.62,0-1.12-.5-1.12-1.12v-6.14c0-.62.5-1.12,1.12-1.12h8.52c-.32-1.28-.67-2.54-1.06-3.79h-54.17Z"/>
    <path class="cls-4" d="m74.35,73.7h-27.96v33.92h32.55c-4.86-5.38-7.82-12.51-7.82-20.31,0-4.89,1.16-9.51,3.23-13.61Z"/>
    <path class="cls-4" d="m131.83,87.3c0,7.8-2.96,14.93-7.82,20.31h12.02c5.2-9.72,8.16-20.82,8.16-32.62,0-.44,0-.87-.02-1.3h-15.57c2.06,4.1,3.23,8.72,3.23,13.61Z"/>
    <path class="cls-3" d="m73.36,87.3c0,15.5,12.61,28.12,28.12,28.12s28.12-12.61,28.12-28.12-12.61-28.12-28.12-28.12-28.12,12.61-28.12,28.12Zm50.15,0c0,12.15-9.89,22.04-22.04,22.04s-22.04-9.89-22.04-22.04,9.89-22.04,22.04-22.04,22.04,9.89,22.04,22.04Z"/>
    <path class="cls-3" d="m101.48,67.5c-10.92,0-19.8,8.88-19.8,19.8s8.88,19.8,19.8,19.8,19.8-8.88,19.8-19.8-8.88-19.8-19.8-19.8Zm15.28,19.95c0,.39-.31.7-.7.7s-.7-.31-.7-.7c0-7.5-6.1-13.61-13.61-13.61s-13.61,6.1-13.61,13.61,6.1,13.61,13.61,13.61c.39,0,.7.31.7.7s-.31.7-.7.7c-8.27,0-15-6.73-15-15s6.73-15,15-15,15,6.73,15,15Z"/>
    <polygon class="cls-4" points="114.56 52.19 112.41 44.69 90.54 44.69 88.39 52.19 114.56 52.19"/>
    <path class="cls-3" d="m134.73,64.35h8.64c-.2-1.31-.45-2.61-.72-3.9h-7.92v3.9Z"/>
    <rect class="cls-4" x="57.68" y="46.3" width="10.61" height="5.89"/>
    <path class="cls-4" d="m86.75,87.45c0,8.27,6.73,15,15,15,.39,0,.7-.31.7-.7s-.31-.7-.7-.7c-7.5,0-13.61-6.1-13.61-13.61s6.1-13.61,13.61-13.61,13.61,6.1,13.61,13.61c0,.39.31.7.7.7s.7-.31.7-.7c0-8.27-6.73-15-15-15s-15,6.73-15,15Z"/>
  </g>
  <path class="cls-1" d="m117.12,53c.1.34.03.7-.18.98-.21.28-.54.45-.89.45h25.03c-.23-.75-.48-1.49-.74-2.23h-23.45l.23.81Z"/>
  <path class="cls-1" d="m45.28,71.46h1.12v-14.04c0-1.65,1.35-3,3-3h7.17c-.62,0-1.12-.5-1.12-1.12v-1.12h-6.06c-2.89,0-5.23,2.35-5.23,5.23v15.16c0-.62.5-1.12,1.12-1.12Z"/>
  <path class="cls-1" d="m46.39,117.19v-7.34h-1.12c-.62,0-1.12-.5-1.12-1.12v8.45c0,2.89,2.35,5.23,5.23,5.23h75.99c.69-.73,1.36-1.47,2.02-2.23H49.39c-1.65,0-3-1.34-3-3Z"/>
  <path class="cls-1" d="m70.53,53.31c0,.62-.5,1.12-1.12,1.12h17.5c-.35,0-.68-.16-.89-.45-.21-.28-.28-.64-.18-.98l.23-.81h-15.54v1.12Z"/>
  <path class="cls-1" d="m128.6,73.7h15.57c-.01-.75-.04-1.49-.07-2.23h-16.75c.45.73.86,1.47,1.25,2.23Z"/>
  <path class="cls-1" d="m45.28,109.85h35.91c-.78-.71-1.53-1.45-2.24-2.23h-32.55v-33.92h27.96c.38-.76.8-1.51,1.25-2.23h-30.33c-.62,0-1.12.5-1.12,1.12v36.15c0,.62.5,1.12,1.12,1.12Z"/>
  <path class="cls-1" d="m121.77,109.85h13.01c.43-.74.85-1.48,1.25-2.23h-12.02c-.71.78-1.45,1.53-2.24,2.23Z"/>
  <path class="cls-1" d="m74.35,73.7c-2.06,4.1-3.23,8.72-3.23,13.61,0,7.8,2.96,14.93,7.82,20.31.71.78,1.45,1.53,2.24,2.23,5.38,4.85,12.5,7.8,20.3,7.8s14.91-2.96,20.3-7.8c.78-.71,1.53-1.45,2.24-2.23,4.86-5.38,7.82-12.51,7.82-20.31,0-4.89-1.16-9.51-3.23-13.61-.38-.76-.8-1.51-1.25-2.23-5.34-8.7-14.94-14.51-25.88-14.51s-20.53,5.81-25.88,14.51c-.45.73-.86,1.47-1.25,2.23Zm55.24,13.61c0,15.5-12.61,28.12-28.12,28.12s-28.12-12.61-28.12-28.12,12.61-28.12,28.12-28.12,28.12,12.61,28.12,28.12Z"/>
  <path class="cls-1" d="m79.44,87.3c0,12.15,9.89,22.04,22.04,22.04s22.04-9.89,22.04-22.04-9.89-22.04-22.04-22.04-22.04,9.89-22.04,22.04Zm41.84,0c0,10.92-8.88,19.8-19.8,19.8s-19.8-8.88-19.8-19.8,8.88-19.8,19.8-19.8,19.8,8.88,19.8,19.8Z"/>
  <path class="cls-1" d="m86.02,53.98c.21.28.54.45.89.45h29.14c.35,0,.68-.16.89-.45.21-.28.28-.64.18-.98l-.23-.81-2.56-8.93c-.14-.48-.58-.81-1.07-.81h-23.55c-.5,0-.94.33-1.07.81l-2.56,8.93-.23.81c-.1.34-.03.7.18.98Zm26.4-9.29l2.15,7.5h-26.17l2.15-7.5h21.87Z"/>
  <path class="cls-1" d="m132.5,59.33v6.14c0,.62.5,1.12,1.12,1.12h10.07c-.09-.75-.19-1.49-.31-2.23h-8.64v-3.9h7.92c-.16-.75-.33-1.49-.52-2.23h-8.52c-.62,0-1.12.5-1.12,1.12Z"/>
  <path class="cls-1" d="m55.45,53.31c0,.62.5,1.12,1.12,1.12h12.85c.62,0,1.12-.5,1.12-1.12v-8.12c0-.62-.5-1.12-1.12-1.12h-12.85c-.62,0-1.12.5-1.12,1.12v8.12Zm2.23-7h10.61v5.89h-10.61v-5.89Z"/>
  <path class="cls-1" d="m34.16,62.93h-8.07c-.62,0-1.12.5-1.12,1.12s.5,1.12,1.12,1.12h8.07c.62,0,1.12-.5,1.12-1.12s-.5-1.12-1.12-1.12Z"/>
  <path class="cls-1" d="m45.49,40.79c.53-.31.72-.99.41-1.53l-4.04-6.99c-.31-.53-.99-.72-1.53-.41-.53.31-.72.99-.41,1.53l4.04,6.99c.21.36.58.56.97.56.19,0,.38-.05.56-.15Z"/>
  <path class="cls-1" d="m37.61,49.52l-6.99-4.04c-.53-.31-1.22-.13-1.53.41-.31.53-.13,1.22.41,1.53l6.99,4.04c.18.1.37.15.56.15.39,0,.76-.2.97-.56.31-.53.13-1.22-.41-1.53Z"/>
  <g>
    <g>
      <path class="cls-1" d="m93.19,9.62c-.12,0-.24-.02-.37-.05-2.3-.63-4.67-1.13-7.03-1.51-.76-.12-1.28-.84-1.16-1.6.12-.76.84-1.28,1.6-1.16,2.46.39,4.92.92,7.32,1.57.74.2,1.18.97.98,1.71-.17.62-.73,1.03-1.35,1.03Z"/>
      <path class="cls-1" d="m75,145.59c-18.85,0-36.58-7.34-49.91-20.67-13.33-13.33-20.67-31.06-20.67-49.91s7.34-36.58,20.67-49.91c13.33-13.33,31.06-20.67,49.91-20.67.77,0,1.4.63,1.4,1.4s-.63,1.4-1.4,1.4c-18.11,0-35.13,7.05-47.94,19.86-12.8,12.8-19.86,29.83-19.86,47.94s7.05,35.13,19.86,47.94c12.8,12.8,29.83,19.86,47.94,19.86s35.13-7.05,47.94-19.86c12.8-12.8,19.86-29.83,19.86-47.94,0-12.7-3.53-25.09-10.22-35.81-6.5-10.43-15.71-18.92-26.63-24.53-.69-.35-.96-1.19-.6-1.88.35-.69,1.19-.96,1.88-.6,11.37,5.84,20.96,14.67,27.73,25.53,6.96,11.17,10.64,24.06,10.64,37.29,0,18.85-7.34,36.58-20.67,49.91-13.33,13.33-31.06,20.67-49.91,20.67Z"/>
    </g>
    <path class="cls-1" d="m101.76,10.39c0,.98-.8,1.78-1.78,1.78s-1.78-.8-1.78-1.78.8-1.78,1.78-1.78,1.78.8,1.78,1.78Z"/>
  </g>
</svg>