<?xml version="1.0" encoding="UTF-8"?>
<svg id="Capa_1" data-name="Capa 1" xmlns="http://www.w3.org/2000/svg" xmlns:xlink="http://www.w3.org/1999/xlink" viewBox="0 0 226.82 150">
  <defs>
    <style>
      .cls-1 {
        filter: url(#drop-shadow-1);
      }

      .cls-2 {
        fill: #fff;
      }

      .cls-2, .cls-3 {
        stroke-width: 0px;
      }

      .cls-3 {
        fill: #17b6fc;
      }
    </style>
    <filter id="drop-shadow-1" filterUnits="userSpaceOnUse">
      <feOffset dx="3" dy="3"/>
      <feGaussianBlur result="blur" stdDeviation="4"/>
      <feFlood flood-color="#000" flood-opacity=".2"/>
      <feComposite in2="blur" operator="in"/>
      <feComposite in="SourceGraphic"/>
    </filter>
  </defs>
  <path class="cls-3" d="m213.39,61.18h-32.69c-6.31-32.51-34.92-57.06-69.28-57.06-38.98,0-70.59,31.6-70.59,70.59,0,.91.03,1.81.07,2.71H9.55c-2.83,0-5.12,2.29-5.12,5.12s2.29,5.12,5.12,5.12h32.49c6.08,32.8,34.82,57.65,69.38,57.65,38.98,0,70.59-31.6,70.59-70.59,0-1.1-.03-2.2-.08-3.29h31.47c2.83,0,5.12-2.29,5.12-5.12h0c0-2.83-2.29-5.12-5.12-5.12Z"/>
  <g class="cls-1">
    <circle class="cls-2" cx="111.42" cy="74.71" r="55.47"/>
  </g>
</svg>