<?xml version="1.0" encoding="UTF-8"?><svg id="Capa_1" xmlns="http://www.w3.org/2000/svg" viewBox="0 0 50 50"><polygon points="20.81 26.29 23.97 26.29 22.39 21.25 20.81 26.29" style="fill:#8b46d1;"/><path d="M36.58,8.42H13.42c-2.76,0-5,2.24-5,5v23.17c0,2.76,2.24,5,5,5h23.17c2.76,0,5-2.24,5-5V13.42c0-2.76-2.24-5-5-5Zm-10.71,23.95l-1.13-3.61h-4.71l-1.13,3.61h-3.16l4.51-14.36h4.28l4.51,14.36h-3.16Zm7.6,0h-2.69v-10.99h2.69v10.99Zm-1.34-11.82c-1.03,0-1.87-.84-1.87-1.87s.84-1.87,1.87-1.87,1.87,.84,1.87,1.87-.84,1.87-1.87,1.87Z" style="fill:#8b46d1;"/></svg>