<?xml version="1.0" encoding="UTF-8"?><svg id="Capa_1" xmlns="http://www.w3.org/2000/svg" viewBox="0 0 50 50"><polygon points="18.26 26.29 21.42 26.29 19.84 21.25 18.26 26.29" style="fill:#8b46d1;"/><path d="M32.25,23.43c-1.88,0-1.97,2.08-1.97,2.08h3.93s-.08-2.08-1.96-2.08Z" style="fill:#8b46d1;"/><path d="M36.58,8.42H13.42c-2.76,0-5,2.24-5,5v23.17c0,2.76,2.24,5,5,5h23.17c2.76,0,5-2.24,5-5V13.42c0-2.76-2.24-5-5-5Zm-13.26,23.95l-1.13-3.61h-4.71l-1.13,3.61h-3.16l4.51-14.36h4.28l4.51,14.36h-3.16Zm14.05-5.02l-7.19,.08s-.17,2.48,2.52,2.5c1.84,.01,3.26-.38,3.26-.38v2.11c-.8,.5-1.87,.7-3.68,.7-3.61,0-5.7-3.52-5.09-7.18s4.69-5.31,7.58-3.68,2.58,5.85,2.58,5.85Z" style="fill:#8b46d1;"/></svg>