<?xml version="1.0" encoding="UTF-8"?><svg id="Capa_1" xmlns="http://www.w3.org/2000/svg" viewBox="0 0 31.47 31.47"><path d="M.13,15.74c.07-.15,.22-.18,.33-.26,1.53-.99,2.18-2.46,2.28-4.23,.09-1.55-.03-3.11,.07-4.66,.07-1.14,.32-2.25,1.13-3.12,.56-.6,1.21-.99,2.1-.98,6.37,.02,12.73,.03,19.1,0,1.07,0,1.81,.5,2.41,1.27,.57,.74,.79,1.63,.89,2.54,.16,1.55,.03,3.11,.08,4.66,.04,1.29,.32,2.51,1.18,3.53,.44,.53,1.01,.89,1.63,1.23-.39,.24-.77,.44-1.1,.72-1.07,.9-1.56,2.09-1.67,3.44-.12,1.42-.02,2.85-.05,4.28-.02,1.07-.18,2.1-.68,3.07-.44,.85-1.15,1.39-2.04,1.71-.12,.04-.25,.04-.38,.04-6.52,0-13.05,.01-19.57-.01-.95,0-1.65-.61-2.18-1.35-.49-.67-.7-1.47-.8-2.28-.18-1.43-.03-2.87-.09-4.31-.03-.71-.04-1.43-.23-2.13-.34-1.29-1.07-2.28-2.19-3-.08-.05-.15-.1-.23-.16Zm19.33,.04c-.01-.18-.02-.36-.04-.54-.13-1.15-.91-1.91-2.01-2-1.16-.09-2.05,.51-2.35,1.6-.17,.63-.17,1.28,0,1.91,.13,.5,.38,.94,.82,1.23,1.45,.96,3.33,.09,3.54-1.63,.02-.19,.03-.38,.04-.57Zm2.05-1.79c-.12-.66-.12-.65-.78-.67-.24,0-.32,.05-.32,.31,.01,1.26,0,2.52,0,3.77,0,.26-.09,.61,.04,.77,.15,.18,.52,.03,.79,.06,.23,.03,.28-.06,.28-.28-.01-1.01,0-2.03,0-3.04,0-.13,0-.24,.08-.36,.28-.36,.85-.52,1.33-.36,.34,.11,.5,.41,.51,.92,0,.76,0,1.52,0,2.28,0,.27-.12,.64,.06,.78,.17,.14,.52,.04,.8,.05,.02,0,.04,0,.06,0,.13,.01,.19-.03,.19-.17-.02-1.13,.06-2.26-.04-3.39-.09-1.04-.88-1.6-1.91-1.41-.45,.08-.79,.33-1.09,.73Zm-7.88,.82c.14-.04,.41,.1,.49-.06,.09-.2-.03-.45-.15-.66,0,0-.01-.02-.02-.03-.66-1.08-2.73-1.13-3.44-.09-.43,.64-.24,1.45,.44,1.82,.31,.17,.64,.27,.98,.35,.29,.07,.58,.12,.85,.26,.21,.11,.34,.28,.32,.53-.02,.25-.17,.41-.4,.48-.36,.11-.73,.11-1.08-.05-.16-.07-.33-.18-.34-.35-.03-.39-.28-.35-.53-.34-.14,0-.28,0-.41,0-.17-.01-.22,.04-.19,.22,.07,.33,.2,.62,.43,.86,.72,.75,2.54,.74,3.26-.01,.45-.47,.48-1.26,.06-1.73-.3-.34-.73-.46-1.14-.58-.34-.1-.71-.13-1.04-.28-.36-.16-.46-.57-.2-.86,.24-.27,.56-.28,.88-.23,.29,.05,.54,.21,.62,.51,.05,.19,.12,.24,.3,.22,.09-.01,.19,0,.33,0Zm-4.51,1.37h0c0-.69,0-1.37,0-2.06,0-.79,0-.78-.81-.79-.23,0-.3,.05-.3,.29,.01,1.59,0,3.19,0,4.79,0,.15,0,.3-.03,.44-.07,.33-.29,.53-.61,.46-.37-.07-.4,.09-.39,.37,0,.07,0,.15-.02,.22-.07,.24,.06,.29,.26,.31,1.12,.11,1.88-.38,1.89-1.62,0-.8,0-1.61,0-2.41Zm-.55-5.02q-.57,0-.57,.39,0,.6,.64,.59,.46-.01,.46-.45t-.53-.52Z" style="fill:#00786a;"/><path d="M19.46,15.78c-.01,.19-.01,.38-.04,.57-.21,1.72-2.09,2.59-3.54,1.63-.44-.29-.68-.74-.82-1.23-.17-.63-.17-1.28,0-1.91,.29-1.09,1.19-1.69,2.35-1.6,1.11,.09,1.88,.85,2.01,2,.02,.18,.02,.36,.04,.54Zm-3.4,.02c-.02,.31,.03,.62,.13,.93,.16,.47,.5,.71,.99,.72,.48,.01,.83-.21,1.01-.67,.24-.65,.24-1.31,.01-1.96-.18-.49-.52-.71-1.01-.7-.49,0-.81,.24-.99,.74-.11,.3-.15,.62-.14,.95Z" style="fill:#fafbfb;"/><path d="M21.51,13.99c.3-.4,.64-.64,1.09-.73,1.03-.19,1.82,.37,1.91,1.41,.1,1.13,.02,2.26,.04,3.39,0,.14-.06,.19-.19,.17-.02,0-.04,0-.06,0-.27,0-.63,.09-.8-.05-.18-.14-.05-.51-.06-.78,0-.76,0-1.52,0-2.28,0-.52-.17-.81-.51-.92-.47-.16-1.04,0-1.33,.36-.09,.11-.08,.23-.08,.36,0,1.01,0,2.03,0,3.04,0,.22-.05,.31-.28,.28-.27-.03-.63,.12-.79-.06-.13-.16-.04-.51-.04-.77,0-1.26,0-2.52,0-3.77,0-.26,.08-.31,.32-.31,.66,.01,.66,0,.78,.67Z" style="fill:#fafbfb;"/><path d="M13.62,14.8c-.14,0-.23,0-.33,0-.17,.02-.24-.03-.3-.22-.08-.29-.33-.46-.62-.51-.32-.05-.64-.03-.88,.23-.26,.29-.16,.71,.2,.86,.33,.14,.69,.18,1.04,.28,.42,.12,.84,.24,1.14,.58,.43,.47,.39,1.26-.06,1.73-.72,.75-2.54,.76-3.26,.01-.23-.24-.36-.53-.43-.86-.04-.18,.02-.23,.19-.22,.14,0,.27,0,.41,0,.25,0,.5-.05,.53,.34,.01,.17,.18,.28,.34,.35,.35,.16,.72,.16,1.08,.05,.23-.07,.38-.23,.4-.48,.02-.25-.11-.42-.32-.53-.27-.14-.56-.19-.85-.26-.34-.08-.67-.18-.98-.35-.68-.37-.87-1.18-.44-1.82,.71-1.05,2.79-.99,3.44,.09,0,0,.01,.02,.02,.03,.12,.21,.24,.46,.15,.66-.07,.16-.35,.02-.49,.06Z" style="fill:#fafbfb;"/><path d="M9.11,16.18c0,.8,0,1.61,0,2.41,0,1.24-.77,1.73-1.89,1.62-.2-.02-.33-.07-.26-.31,.02-.07,.02-.15,.02-.22-.01-.28,.02-.44,.39-.37,.32,.07,.54-.13,.61-.46,.03-.14,.03-.29,.03-.44,0-1.6,0-3.19,0-4.79,0-.24,.06-.3,.3-.29,.81,.01,.81,0,.81,.79,0,.69,0,1.37,0,2.06h0Z" style="fill:#fafbfb;"/><path d="M8.56,11.15q.53,0,.53,.52t-.46,.45q-.64,.02-.64-.59,0-.39,.57-.39Z" style="fill:#fafbfb;"/><path d="M16.06,15.8c-.01-.33,.02-.64,.14-.95,.18-.5,.5-.73,.99-.74,.49,0,.84,.21,1.01,.7,.23,.65,.23,1.31-.01,1.96-.18,.46-.53,.68-1.01,.67-.49-.01-.83-.25-.99-.72-.1-.3-.15-.62-.13-.93Z" style="fill:#00786a;"/></svg>