<?xml version="1.0" encoding="UTF-8"?><svg id="Capa_1" xmlns="http://www.w3.org/2000/svg" viewBox="0 0 31.47 31.47"><rect x="3.41" y="3.41" width="24.65" height="24.65" style="fill:#ff9a00;"/><polygon points="12.04 16.88 14.83 16.88 13.43 12.43 12.04 16.88" style="fill:#300;"/><path d="M25.96,1.1H5.51C3.08,1.1,1.1,3.08,1.1,5.51V25.96c0,2.44,1.98,4.41,4.41,4.41H25.96c2.44,0,4.41-1.98,4.41-4.41V5.51c0-2.44-1.98-4.41-4.41-4.41Zm-9.45,21.13l-1-3.18h-4.15l-1,3.18h-2.79l3.98-12.67h3.78l3.98,12.67h-2.79Zm6.7,0h-2.37V12.54h2.37v9.7Zm-1.19-10.43c-.91,0-1.65-.74-1.65-1.65s.74-1.65,1.65-1.65,1.65,.74,1.65,1.65-.74,1.65-1.65,1.65Z" style="fill:#300;"/></svg>