<?xml version="1.0" encoding="UTF-8"?>
<svg id="Capa_1" data-name="Capa 1" xmlns="http://www.w3.org/2000/svg" viewBox="0 0 50 50">
  <path d="m5.08,26.15c0-.83,0-1.66,0-2.49.05-.37.1-.74.14-1.11.66-5.28,3.04-9.66,7.14-13.03,6.45-5.31,15.35-6.09,22.55-1.86,6.43,3.78,9.76,9.53,9.99,16.99.12,4.08-1.01,7.85-3.29,11.23-3.17,4.7-7.56,7.59-13.14,8.63-.74.14-1.48.21-2.23.31h-2.49c-.1-.02-.2-.06-.3-.06-3.97-.32-7.54-1.68-10.67-4.13-4.03-3.16-6.51-7.28-7.41-12.33-.13-.71-.2-1.43-.3-2.15Zm27.4-5.68c.11-.09.19-.15.27-.21,1.82-1.4,2.54-3.76,1.81-5.92-.73-2.15-2.74-3.59-5.03-3.6-3.03,0-6.07,0-9.1,0-2.26,0-4.28,1.46-5,3.59-.73,2.15-.02,4.49,1.78,5.89.1.08.19.16.31.25-1.53,1.11-2.36,2.58-2.36,4.45,0,1.86.86,3.32,2.34,4.4-.03.05-.04.06-.04.07-.09.07-.19.14-.28.21-1.71,1.45-2.38,3.28-1.85,5.46.62,2.57,3.14,4.3,5.7,3.98,2.77-.34,4.81-2.54,4.84-5.25.02-1.5,0-3.01,0-4.51,0-.12,0-.25,0-.41,3.01,2.45,6.63,1.14,8.04-.95,1.48-2.18,1.31-5.5-1.43-7.46Z" style="fill: #fff; stroke-width: 0px;"/>
  <path d="m24.12,12.47v7.1c-.08.01-.16.04-.25.04-1.15,0-2.31.02-3.46,0-1.8-.03-3.31-1.4-3.5-3.14-.2-1.83.95-3.47,2.73-3.88.37-.09.77-.1,1.16-.11,1.09-.01,2.18,0,3.31,0Z" style="fill: #fff; stroke-width: 0px;"/>
  <path d="m25.88,19.59v-7.05s.06-.05.08-.05c1.31,0,2.62-.07,3.92.03,1.9.15,3.23,1.69,3.23,3.55,0,1.83-1.36,3.37-3.23,3.51-1.31.1-2.64.02-4,.02Z" style="fill: #fff; stroke-width: 0px;"/>
  <path d="m24.12,21.37v7.1c-.4,0-.79,0-1.17,0-.92,0-1.84.05-2.76-.03-1.85-.15-3.24-1.63-3.28-3.42-.04-1.88,1.23-3.45,3.13-3.63,1.34-.13,2.71-.02,4.09-.02Z" style="fill: #fff; stroke-width: 0px;"/>
  <path d="m24.07,30.21c0,1.41.11,2.79-.03,4.15-.18,1.77-2.01,3.13-3.79,2.97-1.96-.18-3.38-1.7-3.36-3.6.02-1.85,1.47-3.41,3.33-3.5,1.28-.06,2.56-.01,3.84-.01Z" style="fill: #fff; stroke-width: 0px;"/>
  <path d="m33.11,24.91c0,2-1.62,3.58-3.64,3.56-1.99-.01-3.6-1.61-3.6-3.57,0-1.97,1.61-3.56,3.61-3.56,2.02,0,3.63,1.58,3.63,3.57Z" style="fill: #fff; stroke-width: 0px;"/>
</svg>