<?xml version="1.0" encoding="UTF-8"?><svg id="Capa_1" xmlns="http://www.w3.org/2000/svg" viewBox="0 0 31.47 31.47"><path d="M27.96,1.1c-8.15,.02-16.3,.01-24.45,.01-.39,0-.69,.32-.65,.71,.3,3.44,1.67,18.31,2.25,25.05,.03,.4,.31,.73,.7,.83,3.12,.85,6.23,1.72,9.34,2.59,.39,.11,.8,.11,1.2,0,3.13-.87,6.25-1.74,9.38-2.6,.37-.1,.63-.42,.66-.79,.41-4.72,.82-9.45,1.24-14.17,.32-3.64,.63-7.28,.98-10.91,.05-.56-.07-.71-.65-.71ZM10.72,23.45c-.52-.14-1.18-.17-1.52-.51-.35-.35-.18-1.04-.23-1.58-.1-1.01-.18-2.02-.29-3.02-.04-.33,.05-.43,.38-.42,.83,.02,1.66,.02,2.49,0,.29,0,.39,.1,.4,.38,.04,.61,.12,1.21,.16,1.82,.02,.25,.08,.41,.35,.48,1.08,.27,2.15,.56,3.23,.84,.04,.02,2.18-.54,3.22-.81,.3-.08,.43-.19,.46-.52,.08-1.11,.19-2.22,.31-3.33,.04-.35-.07-.45-.42-.45-1.15,0-3.45,.04-3.45,.04-2.23-.01-4.45-.04-6.68-.02-.5,0-.64-.14-.69-.62-.24-2.89-.5-5.78-.78-8.66-.05-.49,.12-.56,.55-.56,2.53,0,5.06-.01,7.59-.02,0,0,5.09,.05,7.65,.02,.36,0,.4,.15,.36,.44-.09,.81-.17,1.61-.22,2.42-.02,.31-.12,.42-.44,.42-2.45-.02-7.43,0-7.48,.02-1.38,0-2.75,0-4.13-.03-.31,0-.38,.11-.35,.4,.09,.85,.17,1.7,.23,2.54,.02,.3,.16,.36,.43,.36,1.28-.02,2.55-.02,3.83-.03h0s4.99,.04,7.42,.04c.07-.01,.12,.01,.11,.09-.18,2.12-.35,4.23-.53,6.35-.09,1.03-.19,2.05-.28,3.08-.02,.23-.03,.42-.32,.5-2.09,.55-6.28,1.71-6.28,1.71-1.73-.34-3.39-.91-5.09-1.35Z" style="fill:#e44e27;"/><g><path d="M15.82,6.46c0-.89,.01-1.79,0-2.68,0-.37,.13-.49,.49-.49,3.16,.01,6.32,.01,9.48,0,.42,0,.53,.17,.5,.54-.16,1.56-.32,3.13-.46,4.69-.1,1.12-.17,2.25-.27,3.38-.15,1.64-.31,3.29-.46,4.93-.1,1.06-.17,2.13-.27,3.19-.16,1.85-.33,3.69-.49,5.54-.02,.26-.2,.33-.41,.38-2.57,.71-5.13,1.41-7.69,2.13-.38,.11-.41-.07-.41-.35,0-.97,0-1.95,0-2.92,0,0,4.19-1.16,6.28-1.71,.29-.08,.3-.27,.32-.5,.09-1.03,.2-2.05,.28-3.08,.18-2.12,.35-4.23,.53-6.35,0-.08-.03-.11-.11-.09-2.43,0-7.38-.03-7.42-.04,0-1.08,0-2.16,0-3.25,.04-.02,5.03-.04,7.48-.02,.31,0,.42-.11,.44-.42,.05-.81,.14-1.62,.22-2.42,.03-.29,0-.45-.36-.44-2.55,.02-7.65-.02-7.65-.02Z" style="fill:#f06529;"/><path d="M15.7,21.43c.15-.22,.12-.46,.12-.7,0-1.46,0-2.92,0-4.37,0,0,2.3-.03,3.45-.04,.35,0,.46,.1,.42,.45-.12,1.11-.23,2.22-.31,3.33-.02,.33-.16,.44-.46,.52-1.04,.27-3.18,.83-3.22,.81Z" style="fill:#f06529;"/></g></svg>