<?xml version="1.0" encoding="UTF-8"?><svg id="Capa_1" xmlns="http://www.w3.org/2000/svg" viewBox="0 0 31.47 31.47"><path d="M28.53,1.11c-4.26,0-8.52,0-12.79,0s-8.51-.03-12.77,0c-.3,0-.27,.08-.24,.42,.06,.71,.13,1.13,.19,1.83,.05,.53,.1,1.06,.15,1.59,.05,.58,.11,1.16,.16,1.73,.05,.55,.1,1.11,.15,1.66,.06,.69,.13,1.39,.19,2.08,.05,.56,.1,1.12,.15,1.68,.06,.69,.13,1.39,.2,2.08,.05,.57,.1,1.13,.15,1.7,.06,.69,.13,1.37,.19,2.06,.06,.69,.12,1.39,.19,2.08,.08,.81,.15,1.63,.23,2.44,.06,.69,.12,1.39,.19,2.08,.09,.94,.18,1.88,.26,2.82,.02,.18-.01,.16,.17,.21,3.43,.92,6.85,1.84,10.28,2.77,.1,.03,.19,.03,.29,0,2.5-.68,5-1.35,7.51-2.02,.92-.25,1.84-.49,2.75-.74,.17-.04,.17-.05,.18-.22,.02-.16,.03-.32,.04-.49,.05-.55,.1-1.11,.15-1.66,.05-.59,.11-1.18,.16-1.77,.05-.55,.1-1.1,.15-1.65,.06-.7,.13-1.4,.2-2.1,.05-.55,.1-1.11,.15-1.66,.06-.69,.13-1.39,.2-2.08,.05-.56,.1-1.12,.15-1.68,.06-.69,.13-1.37,.19-2.06,.06-.69,.12-1.39,.19-2.08,.06-.69,.13-1.39,.2-2.08,.06-.69,.12-1.39,.19-2.08,.08-.81,.15-1.63,.23-2.44,.07-.73,.14-1.47,.2-2.2,.02-.28,.03-.23-.2-.23ZM13.83,24.28c-1.53-.45-3.07-.91-4.6-1.36-.17-.05-.16-.05-.18-.22-.05-.61-.11-1.23-.16-1.84-.04-.43-.07-.87-.11-1.3-.04-.5-.09-1.01-.13-1.51-.01-.15-.02-.16,.14-.16,1,0,2,0,3,0,.15,0,.14,0,.16,.15,.06,.73,.12,1.47,.18,2.2,0,0,0,.01,0,.02,.04,.24-.03,.19,.23,.25,1.07,.27,3.39,.83,3.39,.83h0s1.03-.28,1.51-.41c.67-.19,1.35-.38,2.02-.57,.09-.02,.13-.06,.14-.16,.02-.51,.06-1.02,.09-1.53,.05-.77,.09-1.54,.14-2.31,.01-.23,.02-.2-.19-.2-1.18,0-2.36,0-3.54,0-.06,0-.12,0-.17,0-.06,0-2.66-.02-3.9-.03-1.09,0-2.18,0-3.28-.01-.03,0-.06,0-.09,0-.06,0-.08-.03-.08-.09,0-.13-.02-.27-.03-.4-.05-.65-.1-1.31-.15-1.96-.01-.17-.03-.35-.04-.52-.01-.15-.02-.15,.12-.2,.36-.15,.72-.3,1.08-.45,2.08-.86,4.16-1.73,6.24-2.59,.05-.02,.09-.05,.14-.07,0-.05,0-.11,0-.16-.12,0-5.19-.01-7.67-.01-.24,0-.2,.04-.24-.21-.11-.89-.22-1.78-.33-2.68-.01-.09-.08-.21,0-.28,.06-.06,.18-.02,.27-.02,2.58,0,13.3,0,15.86,0,.22,0,.2-.02,.19,.21,0,.01,0,.02,0,.03-.05,.52-.11,1.05-.16,1.57-.04,.42-.09,.84-.13,1.26,0,.09-.05,.13-.13,.16-.2,.08-.41,.17-.61,.26-2.29,.98-4.58,1.96-6.87,2.94-.05,.02-.03,.1,.03,.1,2.34,0,4.68,0,7.03,0,.05,0,.09,0,.14,0,.12,0,.12,0,.11,.12-.03,.41-.07,.82-.11,1.23-.04,.47-.09,.94-.13,1.4-.04,.46-.08,.93-.12,1.39-.04,.5-.09,1.01-.13,1.51-.04,.44-.07,.88-.11,1.32-.04,.47-.09,.94-.13,1.4-.04,.46-.08,.91-.12,1.37-.01,.16-.02,.16-.17,.2-1.31,.38-2.61,.76-3.92,1.14-.54,.16-1.08,.32-1.62,.47-.32,.09-.64,.2-.97,.27-.63-.19-1.26-.38-1.88-.56Z" style="fill:#2162af;"/><g><path d="M15.71,24.85c.33-.07,.65-.18,.97-.27,.54-.15,1.08-.31,1.62-.47,1.31-.38,2.61-.76,3.92-1.14,.15-.04,.15-.04,.17-.2,.04-.46,.08-.91,.12-1.37,.04-.47,.08-.94,.13-1.4,.04-.44,.08-.88,.11-1.32,.04-.5,.09-1.01,.13-1.51,.04-.46,.08-.93,.12-1.39,.04-.47,.08-.94,.13-1.4,.04-.41,.07-.82,.11-1.23,0-.11,0-.11-.11-.12-.05,0-.09,0-.14,0-2.34,0-4.68,0-7.03,0-.06,0-.08-.08-.03-.1,2.29-.98,4.58-1.96,6.87-2.94,.2-.09,.4-.18,.61-.26,.08-.03,.12-.07,.13-.16,.04-.42,.09-.84,.13-1.26,.05-.52,.11-1.05,.16-1.57,0-.01,0-.02,0-.03,.01-.23,.04-.21-.19-.21-2.56,0-7.82,0-7.9,0,0-.99,0-1.98,0-2.96,0-.04,0-.08,0-.12,0-.15,0-.15,.16-.15,.33,0,.66,0,.99,0,3.04,0,6.08,0,9.12,0,.03,0,.07,0,.1,0,.18,0,.17,0,.16,.18,0,.34-.05,.67-.08,1-.03,.32-.05,.64-.09,.97-.02,.19-.04,.38-.05,.57,0,.2-.04,.39-.06,.59-.02,.15-.03,.3-.04,.45-.02,.34-.07,.68-.08,1.02-.02,.32-.07,.64-.09,.97-.01,.19-.03,.37-.05,.55-.02,.21-.02,.41-.05,.62-.02,.15-.03,.3-.04,.45-.01,.34-.06,.68-.08,1.02-.03,.4-.07,.79-.1,1.19-.03,.39-.07,.78-.1,1.17-.04,.4-.07,.81-.11,1.21-.02,.26-.04,.52-.07,.78-.04,.32-.05,.64-.09,.97-.02,.19-.03,.39-.05,.59-.02,.19-.02,.38-.06,.57-.03,.15-.02,.3-.03,.45-.01,.2-.04,.39-.05,.59-.01,.19-.02,.38-.05,.57-.03,.15-.03,.31-.04,.47-.02,.33-.07,.66-.08,.99-.02,.32-.07,.64-.09,.97-.01,.17-.03,.33-.04,.5-.01,.22-.03,.45-.06,.67-.02,.14-.02,.28-.03,.41-.01,.21-.04,.41-.05,.62-.02,.32-.06,.63-.09,.95-.02,.15,0,.3-.03,.45-.02,.09-.05,.12-.14,.14-.65,.17-1.31,.35-1.96,.52-.87,.24-1.74,.47-2.61,.71-1.12,.3-2.24,.6-3.35,.9-.14,.04-.28,.08-.42,.12-.07,.02-.1,0-.1-.07,0-.05,0-.09,0-.14,0-.94,0-1.88,0-2.82,0-.08,0-.15-.03-.22Z" style="fill:#3c9cd7;"/><path d="M15.74,16.16c.06,0,.12,0,.17,0,1.18,0,2.36,0,3.54,0,.2,0,.2-.02,.19,.2-.04,.77-.09,1.54-.14,2.31-.03,.51-.07,1.02-.09,1.53,0,.1-.05,.14-.14,.16-.67,.19-1.35,.38-2.02,.57-.47,.13-.95,.27-1.42,.4-.03,0-.06,0-.08,.01,0-1.66,0-3.32,0-4.98,0-.07,0-.14,0-.21Z" style="fill:#3c9cd7;"/></g><polygon points="15.74 9.67 16.09 9.68 15.74 9.83 15.74 9.67" style="fill:#3c9cd7;"/></svg>