<?xml version="1.0" encoding="UTF-8"?><svg id="Capa_1" xmlns="http://www.w3.org/2000/svg" viewBox="0 0 31.47 31.47"><rect x="3.41" y="3.41" width="24.65" height="24.65" style="fill:#31a8ff;"/><path d="M12.45,11.93h-2.31v3.68h2.31c1.02,0,1.84-.82,1.84-1.84s-.82-1.84-1.84-1.84Z" style="fill:#001e36;"/><path d="M25.96,1.1H5.51C3.08,1.1,1.1,3.08,1.1,5.51V25.96c0,2.44,1.98,4.41,4.41,4.41H25.96c2.44,0,4.41-1.98,4.41-4.41V5.51c0-2.44-1.98-4.41-4.41-4.41ZM12.45,18.06h-2.31v4.1h-2.4V9.48h4.71c2.37,0,4.29,1.92,4.29,4.29s-1.92,4.29-4.29,4.29Zm8.39,4.79c-1.17,0-2.31-.26-3.15-.72l-.36-.2,.81-2.3,.56,.35c.48,.3,1.37,.62,2.18,.62,.44,0,1.48-.09,1.48-.94,0-.44-.12-.81-1.57-1.31-2.52-.84-3.05-2.19-3.05-3.17,0-1.91,1.71-3.3,4.06-3.3,1.01,0,2.03,.24,2.79,.66l.36,.2-.82,2.22-.55-.33c-.24-.14-.91-.48-1.82-.48-.73,0-1.2,.32-1.2,.82,0,.42,.22,.68,1.62,1.17,1.41,.5,3.03,1.34,3.03,3.35s-1.71,3.36-4.36,3.36Z" style="fill:#001e36;"/></svg>