<?xml version="1.0" encoding="UTF-8"?><svg id="Capa_1" xmlns="http://www.w3.org/2000/svg" viewBox="0 0 50 50"><path d="M36.58,8.42H13.42c-2.76,0-5,2.24-5,5v23.17c0,2.76,2.24,5,5,5h23.17c2.76,0,5-2.24,5-5V13.42c0-2.76-2.24-5-5-5Zm-14.82,19.22h-2.61v4.64h-2.72v-14.36h5.34c2.68,0,4.86,2.18,4.86,4.86s-2.18,4.86-4.86,4.86Zm13.08-3.6c-1.83-.11-2.95,.53-3.48,.94v7.29h-2.72v-10.81h2.72v1.06c1.4-1.58,3.48-1.58,3.48-1.58v3.1Z" style="fill:#8b46d1;"/><path d="M21.76,20.69h-2.61v4.17h2.61c1.15,0,2.08-.93,2.08-2.08s-.93-2.08-2.08-2.08Z" style="fill:#8b46d1;"/></svg>