<?xml version="1.0" encoding="UTF-8"?><svg id="Capa_1" xmlns="http://www.w3.org/2000/svg" viewBox="0 0 31.47 31.47"><rect x="3.41" y="3.41" width="24.65" height="24.65" style="fill:#99f;"/><polygon points="9.78 16.88 12.58 16.88 11.18 12.43 9.78 16.88" style="fill:#00005b;"/><path d="M22.13,14.35c-1.66,0-1.74,1.84-1.74,1.84h3.46s-.07-1.84-1.73-1.84Z" style="fill:#00005b;"/><path d="M25.96,1.1H5.51C3.08,1.1,1.1,3.08,1.1,5.51V25.96c0,2.44,1.98,4.41,4.41,4.41H25.96c2.44,0,4.41-1.98,4.41-4.41V5.51c0-2.44-1.98-4.41-4.41-4.41ZM14.26,22.23l-1-3.18h-4.15l-1,3.18h-2.79l3.98-12.67h3.78l3.98,12.67h-2.79Zm12.4-4.43l-6.34,.07s-.15,2.19,2.23,2.21c1.62,.01,2.88-.33,2.88-.33v1.86c-.71,.44-1.65,.62-3.24,.62-3.19,0-5.03-3.11-4.49-6.33s4.14-4.69,6.69-3.25,2.28,5.16,2.28,5.16Z" style="fill:#00005b;"/></svg>