<?xml version="1.0" encoding="UTF-8"?><svg id="Capa_1" xmlns="http://www.w3.org/2000/svg" viewBox="0 0 31.47 31.47"><rect x="3.41" y="3.41" width="24.65" height="24.65" style="fill:#99f;"/><path d="M25.96,1.1H5.51C3.08,1.1,1.1,3.08,1.1,5.51V25.96c0,2.44,1.98,4.41,4.41,4.41H25.96c2.44,0,4.41-1.98,4.41-4.41V5.51c0-2.44-1.98-4.41-4.41-4.41ZM12.88,18.06h-2.31v4.1h-2.4V9.48h4.71c2.37,0,4.29,1.92,4.29,4.29s-1.92,4.29-4.29,4.29Zm11.54-3.17c-1.62-.1-2.6,.46-3.07,.83v6.43h-2.4V12.62h2.4v.93c1.24-1.39,3.07-1.39,3.07-1.39v2.74Z" style="fill:#00005b;"/><path d="M12.88,11.93h-2.31v3.68h2.31c1.02,0,1.84-.82,1.84-1.84s-.82-1.84-1.84-1.84Z" style="fill:#00005b;"/></svg>