<?xml version="1.0" encoding="UTF-8"?><svg id="Capa_1" xmlns="http://www.w3.org/2000/svg" viewBox="0 0 50 50"><path d="M21.27,20.69h-2.61v4.17h2.61c1.15,0,2.08-.93,2.08-2.08s-.93-2.08-2.08-2.08Z" style="fill:#8b46d1;"/><path d="M36.58,8.42H13.42c-2.76,0-5,2.24-5,5v23.17c0,2.76,2.24,5,5,5h23.17c2.76,0,5-2.24,5-5V13.42c0-2.76-2.24-5-5-5Zm-15.31,19.22h-2.61v4.64h-2.72v-14.36h5.34c2.68,0,4.86,2.18,4.86,4.86s-2.18,4.86-4.86,4.86Zm9.51,5.43c-1.32,0-2.62-.3-3.57-.82l-.41-.22,.91-2.61,.64,.39c.55,.34,1.56,.7,2.47,.7,.5,0,1.67-.1,1.67-1.07,0-.49-.13-.92-1.78-1.49-2.86-.95-3.46-2.48-3.46-3.59,0-2.17,1.93-3.74,4.6-3.74,1.15,0,2.3,.27,3.16,.75l.41,.23-.93,2.52-.63-.37c-.28-.16-1.03-.54-2.07-.54-.83,0-1.36,.37-1.36,.93,0,.48,.25,.77,1.83,1.33,1.6,.57,3.43,1.51,3.43,3.79s-1.94,3.81-4.94,3.81Z" style="fill:#8b46d1;"/></svg>