<?xml version="1.0" encoding="UTF-8"?>
<svg id="Capa_1" data-name="Capa 1" xmlns="http://www.w3.org/2000/svg" viewBox="0 0 50 50">
  <path d="m44.1,30.6c.28.04.53.07.8.11-.03.07-.05.13-.08.2-.75,1.71-1.51,3.42-2.26,5.13-.08.18-.17.23-.36.17-.16-.06-.33-.08-.49-.14-.15-.05-.24-.03-.33.11-.94,1.37-2.05,2.6-3.3,3.69-2.59,2.25-5.56,3.73-8.91,4.46-1.45.32-2.93.48-4.41.44-5.95-.15-10.91-2.45-14.85-6.91-.47-.53-.88-1.11-1.3-1.68-.09-.13-.18-.17-.33-.12-.19.07-.39.11-.58.16-.11.03-.19,0-.25-.12-.78-1.77-1.56-3.54-2.34-5.31-.01-.03-.02-.05-.03-.09.27-.04.53-.07.8-.11-1.42-5.15-1.05-10.11,1.36-14.85,1.79-3.52,4.43-6.26,7.85-8.24,6.74-3.9,15.29-3.45,21.59,1.14,3.43,2.5,5.85,5.75,7.21,9.77,1.36,4.01,1.39,8.06.22,12.18Zm-4.52,4.62c-.11-.07-.18-.1-.24-.14-.74-.48-1.52-.92-2.22-1.45-2.46-1.87-4.3-4.27-5.76-6.98-.79-1.47-1.61-2.91-2.63-4.23-.66-.85-1.37-1.65-2.3-2.23-.97-.6-1.93-.6-2.9,0-.63.39-1.16.89-1.64,1.44-1.07,1.21-1.93,2.57-2.71,3.98-.71,1.28-1.39,2.57-2.25,3.75-1.64,2.28-3.6,4.21-6.07,5.59-.14.08-.28.16-.45.25,1.36,1.9,2.99,3.46,4.94,4.7,3.37,2.14,7.05,3.08,11.02,2.75,5.51-.46,9.87-3.02,13.2-7.43Zm2.61-5.45c.8-2.83.92-5.61.36-8.41-.82-4.1-2.83-7.53-6.04-10.23-6.72-5.65-16.36-5.64-23.07.03-3.5,2.95-5.55,6.74-6.18,11.27-.34,2.45-.16,4.88.52,7.27.06-.02.09-.02.11-.04.12-.08.24-.15.36-.23,1.08-.78,1.95-1.77,2.78-2.8,1.38-1.72,2.49-3.6,3.45-5.58,1-2.06,2.31-3.9,4.08-5.38,2.34-1.95,5.03-2.74,8.05-2.27,1.96.31,3.64,1.21,5.12,2.53,1.54,1.37,2.71,3.03,3.65,4.85.65,1.28,1.28,2.57,2.08,3.77,1.06,1.59,2.2,3.1,3.64,4.36.33.29.7.54,1.1.85Z" style="fill: #fff; stroke-width: 0px;"/>
</svg>