<?xml version="1.0" encoding="UTF-8"?><svg id="Capa_1" xmlns="http://www.w3.org/2000/svg" viewBox="0 0 50 50"><path d="M24.25,41.49c-.7-.09-1.41-.13-2.1-.26-6.32-1.23-10.84-4.75-13.06-10.83-1.91-5.24-1.15-10.28,2.09-14.82,3.03-4.24,7.26-6.51,12.43-7,2.25-.21,4.45,.05,6.6,.73,.6,.19,1.12,.53,1.48,1.06,.4,.6,.35,1.17-.15,1.69-.57,.6-1.29,.99-2.07,1.21-1.21,.33-2.44,.61-3.67,.85-2.53,.49-5.02,1.13-7.32,2.33-1.76,.91-3.34,2.06-4.72,3.49-1.63,1.7-2.49,3.77-2.91,6.05-.61,3.37,.44,6.25,2.62,8.78,1.48,1.71,3.19,3.13,5.37,3.79,4.18,1.27,8.01,.57,11.42-2.26,2.25-1.87,3.59-4.32,4.57-7.01,.8-2.19,1.26-4.45,1.53-6.76,.13-1.14,.48-2.22,.96-3.26,.27-.58,.7-1.01,1.27-1.31,.85-.44,1.61-.21,2.01,.66,.29,.64,.54,1.31,.73,1.98,1.96,7.01-.94,14.42-7.13,18.25-2.48,1.53-5.17,2.41-8.08,2.59-.1,0-.19,.04-.29,.06h-1.59Z" style="fill:#8b46d1;"/><path d="M32.87,10.89c2.76,1.14,4.82,3.07,6.14,5.79-.35,.17-.71,.32-1.04,.52-1.13,.66-1.76,1.71-2.05,2.93-.29,1.19-.47,2.4-.67,3.61-.59,3.65-1.76,7.08-3.9,10.14-.14,.2-.31,.31-.56,.36-5.9,1.28-12.42-1.73-14.78-7.66-.91-2.28-1.07-4.63-.49-7.02,.04-.15,.16-.31,.29-.42,2.21-1.75,4.72-2.88,7.44-3.54,1.67-.4,3.37-.7,5.05-1.08,1.12-.25,2.23-.56,3.24-1.13,.51-.29,.99-.63,1.17-1.21,.12-.4,.11-.84,.16-1.29Z" style="fill:#8b46d1;"/></svg>