<?xml version="1.0" encoding="UTF-8"?><svg id="Capa_1" xmlns="http://www.w3.org/2000/svg" viewBox="0 0 31.47 31.47"><rect x="4.56" y="5.88" width="22.94" height="20" style="fill:#31a8ff;"/><path d="M25.96,1.1H5.51C3.08,1.1,1.1,3.08,1.1,5.51V25.96c0,2.44,1.98,4.41,4.41,4.41H25.96c2.44,0,4.41-1.98,4.41-4.41V5.51c0-2.44-1.98-4.41-4.41-4.41Zm-9.35,21.06H8.59V9.48h2.4v10.04h5.61v2.63Zm7.61-7.27c-1.62-.1-2.6,.46-3.07,.83v6.43h-2.4V12.62h2.4v.93c1.24-1.39,3.07-1.39,3.07-1.39v2.74Z" style="fill:#001e36;"/></svg>